<svg width="74" height="74" viewBox="0 0 74 74" fill="none" xmlns="http://www.w3.org/2000/svg">
<rect width="74" height="74" rx="10" fill="#FFB016"/>
<path d="M64.0667 35.4C63.7167 34.7594 60.2622 33.1207 60.2622 33.1207C60.863 32.7798 61.2737 32.7094 61.2737 31.3C61.2737 29.7625 61.2667 29.25 60.3333 29.25H57.167C57.1542 29.2192 57.1402 29.1872 57.1273 29.1552C55.0833 24.2531 54.8092 23.0142 51.7607 21.346C47.6715 19.1127 40.0053 19 37 19C33.9947 19 26.3285 19.1127 22.2428 21.346C19.1908 23.0116 19.2667 23.8687 16.8762 29.1552C16.8762 29.1693 16.8517 29.2064 16.8295 29.25H13.6597C12.7333 29.25 12.7263 29.7625 12.7263 31.3C12.7263 32.7094 13.137 32.7798 13.7378 33.1207C13.7378 33.1207 10.4 34.8875 9.93333 35.4C9.46667 35.9125 9 39.5 9 45.65C9 51.8 9.46667 57.95 9.46667 57.95H10.8597C10.8597 59.7437 11.1 60 11.8 60H21.1333C21.8333 60 22.0667 59.7437 22.0667 57.95H51.9333C51.9333 59.7437 52.1667 60 52.8667 60H62.4333C62.9 60 63.1333 59.6156 63.1333 57.95H64.5333C64.5333 57.95 65 51.6719 65 45.65C65 39.6281 64.4167 36.0406 64.0667 35.4ZM21.747 41.1579C19.6222 41.413 17.4865 41.5439 15.349 41.55C12.9667 41.55 12.885 41.7178 12.717 40.0842C12.6538 39.3365 12.6738 38.5832 12.7765 37.8408L12.85 37.45H13.2C14.6 37.45 15.9148 37.5153 18.3975 38.3187C19.6602 38.7348 20.8479 39.3876 21.908 40.2482C22.4167 40.6531 22.5333 41.0375 22.5333 41.0375L21.747 41.1579ZM50.5823 50.3829L50.0667 51.8H23.9333C23.9333 51.8 23.9788 51.7218 23.35 50.3676C22.8833 49.3656 23.4667 48.725 24.3895 48.3611C26.1768 47.6539 31.4 45.65 37 45.65C42.6 45.65 47.927 47.3771 49.6583 48.3611C50.3 48.725 51.0968 48.9812 50.5823 50.3906V50.3829ZM20.599 32.89C20.2222 32.9139 19.8445 32.9169 19.4673 32.899C19.7718 32.3045 19.941 31.6421 20.2385 30.9502C21.1718 28.7721 22.2393 26.307 24.1398 25.2679C26.8862 23.7662 32.5783 23.0897 37 23.0897C41.4217 23.0897 47.1138 23.7611 49.8602 25.2679C51.7607 26.307 52.8235 28.7734 53.7615 30.9502C54.0613 31.6485 54.2282 32.316 54.5408 32.9144C54.3075 32.9285 54.0392 32.9144 53.3987 32.89H20.599ZM61.1663 40.0791C60.9167 41.6781 61.15 41.55 58.651 41.55C56.5135 41.5439 54.3778 41.413 52.253 41.1579C51.9205 41.0926 51.826 40.4763 52.092 40.2482C53.1467 39.378 54.336 38.7243 55.6025 38.3187C58.0852 37.5153 59.4828 37.4077 60.863 37.4615C60.9557 37.4654 61.0438 37.5068 61.1104 37.5778C61.1769 37.6488 61.2172 37.7443 61.2235 37.8459C61.2894 38.5917 61.2702 39.3437 61.1663 40.0842V40.0791Z" fill="black"/>
</svg>
