<svg width="39" height="40" viewBox="0 0 39 40" fill="none" xmlns="http://www.w3.org/2000/svg">
<path fill-rule="evenodd" clip-rule="evenodd" d="M27.586 9.3362C28.2102 9.91518 28.247 10.8906 27.668 11.5149L19.8208 19.976L28.2819 27.8231C28.9062 28.4021 28.9429 29.3775 28.3639 30.0018C27.785 30.6261 26.8095 30.6628 26.1852 30.0838L16.5938 21.1883C15.9695 20.6094 15.9328 19.6339 16.5118 19.0096L25.4073 9.41822C25.9862 8.79394 26.9617 8.75721 27.586 9.3362ZM18.3425 9.68417C18.9668 10.2632 19.0035 11.2386 18.4245 11.8629L10.5774 20.3239L19.0385 28.1711C19.6627 28.7501 19.6995 29.7255 19.1205 30.3498C18.5415 30.9741 17.5661 31.0108 16.9418 30.4318L7.35035 21.5363C7.05056 21.2583 6.8735 20.8725 6.85812 20.464C6.84274 20.0554 6.9903 19.6574 7.26834 19.3576L16.1638 9.76619C16.7428 9.14191 17.7182 9.10519 18.3425 9.68417Z" fill="white"/>
</svg>
