<svg width="39" height="40" viewBox="0 0 39 40" fill="none" xmlns="http://www.w3.org/2000/svg">
<path fill-rule="evenodd" clip-rule="evenodd" d="M10.6355 9.99817C10.0565 10.6224 10.0932 11.5979 10.7175 12.1769L19.1786 20.024L11.3315 28.4851C10.7525 29.1094 10.7892 30.0848 11.4135 30.6638C12.0378 31.2428 13.0132 31.206 13.5922 30.5818L22.4877 20.9903C23.0666 20.366 23.0299 19.3906 22.4056 18.8116L12.8142 9.91615C12.1899 9.33716 11.2145 9.37388 10.6355 9.99817ZM19.879 9.65019C19.3 10.2745 19.3367 11.2499 19.961 11.8289L28.422 19.676L20.5749 28.1371C19.9959 28.7614 20.0326 29.7368 20.6569 30.3158C21.2812 30.8948 22.2567 30.8581 22.8356 30.2338L31.7311 20.6424C32.0091 20.3426 32.1567 19.9446 32.1413 19.536C32.1259 19.1274 31.9489 18.7417 31.6491 18.4636L22.0577 9.56817C21.4334 8.98919 20.4579 9.02591 19.879 9.65019Z" fill="white"/>
</svg>
