<svg width="74" height="74" viewBox="0 0 74 74" fill="none" xmlns="http://www.w3.org/2000/svg">
<rect width="74" height="74" rx="10" fill="#FFB016"/>
<path fill-rule="evenodd" clip-rule="evenodd" d="M43.2258 15.5769C43.2258 15.4239 43.1646 15.2772 43.0557 15.169C42.9468 15.0608 42.7992 15 42.6452 15H26.3871C24.6931 15 23.0685 15.6686 21.8707 16.8587C20.6729 18.0489 20 19.663 20 21.3462V53.6538C20 55.337 20.6729 56.9511 21.8707 58.1413C23.0685 59.3314 24.6931 60 26.3871 60H49.6129C51.3069 60 52.9314 59.3314 54.1293 58.1413C55.3271 56.9511 56 55.337 56 53.6538V30.9162C56 30.7631 55.9388 30.6164 55.8299 30.5082C55.721 30.4 55.5733 30.3392 55.4194 30.3392H44.9677C44.5058 30.3392 44.0627 30.1569 43.736 29.8323C43.4093 29.5077 43.2258 29.0675 43.2258 28.6085V15.5769ZM44.9677 38.0769C45.4297 38.0769 45.8728 38.2593 46.1995 38.5839C46.5262 38.9084 46.7097 39.3487 46.7097 39.8077C46.7097 40.2667 46.5262 40.7069 46.1995 41.0315C45.8728 41.3561 45.4297 41.5385 44.9677 41.5385H31.0323C30.5703 41.5385 30.1272 41.3561 29.8005 41.0315C29.4738 40.7069 29.2903 40.2667 29.2903 39.8077C29.2903 39.3487 29.4738 38.9084 29.8005 38.5839C30.1272 38.2593 30.5703 38.0769 31.0323 38.0769H44.9677ZM44.9677 47.3077C45.4297 47.3077 45.8728 47.49 46.1995 47.8146C46.5262 48.1392 46.7097 48.5794 46.7097 49.0385C46.7097 49.4975 46.5262 49.9377 46.1995 50.2623C45.8728 50.5869 45.4297 50.7692 44.9677 50.7692H31.0323C30.5703 50.7692 30.1272 50.5869 29.8005 50.2623C29.4738 49.9377 29.2903 49.4975 29.2903 49.0385C29.2903 48.5794 29.4738 48.1392 29.8005 47.8146C30.1272 47.49 30.5703 47.3077 31.0323 47.3077H44.9677Z" fill="black"/>
<path d="M46 16.5304C46 16.1091 46.4175 15.8413 46.7269 16.1046C46.9887 16.3289 47.2245 16.5899 47.4256 16.8876L53.9438 26.4963C54.0909 26.7161 53.9308 27 53.6756 27H46.5408C46.3974 27 46.2598 26.9397 46.1584 26.8324C46.057 26.725 46 26.5794 46 26.4276V16.5304Z" fill="black"/>
</svg>
