<svg xmlns="http://www.w3.org/2000/svg" xmlns:xlink="http://www.w3.org/1999/xlink" viewBox="0,0,256,256" width="64px" height="64px"><g fill="none" fill-rule="nonzero" stroke="none" stroke-width="1" stroke-linecap="butt" stroke-linejoin="miter" stroke-miterlimit="10" stroke-dasharray="" stroke-dashoffset="0" font-family="none" font-weight="none" font-size="none" text-anchor="none" style="mix-blend-mode: normal"><g transform="scale(0.5,0.5)"><path d="M7.9,256c0,-137 111.1,-248.1 248.1,-248.1c137,0 248.1,111.1 248.1,248.1c0,137 -111.1,248.1 -248.1,248.1c-137,0 -248.1,-111.1 -248.1,-248.1z" fill="#ffb016"></path><path d="M133.7,240.2h244.6v159.8h-244.6z" fill="#ffffff"></path><path d="M349.7,340.1c-7.7,0 -14,-6.3 -14,-14v-136c0,-44 -35.8,-79.8 -79.8,-79.8c-44,0 -79.8,35.8 -79.8,79.8c0,7.7 -6.3,14 -14,14c-7.7,0 -14,-6.3 -14,-14c0,-59.4 48.3,-107.7 107.7,-107.7c59.4,0 107.7,48.3 107.7,107.7v136c0.2,7.8 -6.1,14 -13.8,14z" fill="#ffffff"></path><path d="M282.6,309.3c0,-14.7 -11.9,-26.6 -26.6,-26.6c-14.7,0 -26.6,11.9 -26.6,26.6c0,9.4 4.8,17.6 12.1,22.3c0,4.2 0,9.4 0,11.5c0,8 6.5,14.5 14.5,14.5c8,0 14.5,-6.5 14.5,-14.5c0,-2 0,-7.2 0,-11.4c7.3,-4.8 12.1,-13.1 12.1,-22.4z" fill="#ffb016"></path></g></g></svg>