<svg width="54" height="54" viewBox="0 0 54 54" fill="none" xmlns="http://www.w3.org/2000/svg">
<rect width="54" height="54" rx="9" fill="#181818"/>
<path fill-rule="evenodd" clip-rule="evenodd" d="M25.6084 13.3641C26.2974 12.329 27.2309 11.4804 28.3261 10.8935C29.4212 10.3066 30.6441 9.99971 31.8861 10H32.2878C32.8356 9.99993 33.3768 10.1194 33.8739 10.3501C34.3709 10.5808 34.8118 10.9172 35.1659 11.3359C35.52 11.7546 35.7788 12.2455 35.9243 12.7745C36.0698 13.3036 36.0985 13.858 36.0084 14.3992L34.8543 21.3333H39.3424C40.1794 21.3333 41.0059 21.5193 41.7625 21.8778C42.519 22.2364 43.1867 22.7587 43.7174 23.407C44.2481 24.0553 44.6286 24.8135 44.8314 25.6269C45.0342 26.4402 45.0543 27.2886 44.8903 28.1107L42.6274 39.444C42.371 40.7288 41.6781 41.8848 40.6666 42.7155C39.6551 43.5462 38.3875 44.0001 37.0795 44H15.6573C14.1569 44 12.7179 43.403 11.657 42.3403C10.596 41.2776 10 39.8362 10 38.3333V23.2222C10 22.7213 10.1987 22.2408 10.5523 21.8866C10.906 21.5323 11.3856 21.3333 11.8858 21.3333H19.2968C19.6072 21.3334 19.9128 21.2567 20.1864 21.1101C20.4601 20.9634 20.6935 20.7514 20.8657 20.4928L25.6084 13.3641ZM17.543 25.1111H13.7715V38.3333C13.7715 38.8343 13.9702 39.3147 14.3238 39.669C14.6775 40.0232 15.1571 40.2222 15.6573 40.2222H17.543V25.1111Z" fill="#FFB016"/>
</svg>
