<svg width="54" height="54" viewBox="0 0 54 54" fill="none" xmlns="http://www.w3.org/2000/svg">
<rect width="54" height="54" rx="9" fill="#181818"/>
<path d="M23.005 30.2667L27.5 26.9143L31.9756 30.2667L30.2706 24.8381L34.7656 21.3333H29.2631L27.5 15.981L25.7369 21.3333H20.2344L24.71 24.8381L23.005 30.2667ZM43 23.2381C43 14.819 36.0637 8 27.5 8C18.9362 8 12 14.819 12 23.2381C12 27.1048 13.4725 30.6095 15.875 33.2952V48L27.5 44.1905L39.125 48V33.2952C41.6233 30.521 43.0017 26.9433 43 23.2381ZM27.5 11.8095C33.9131 11.8095 39.125 16.9333 39.125 23.2381C39.125 29.5429 33.9131 34.6667 27.5 34.6667C21.0869 34.6667 15.875 29.5429 15.875 23.2381C15.875 16.9333 21.0869 11.8095 27.5 11.8095Z" fill="#FFB016"/>
</svg>
