<svg width="74" height="74" viewBox="0 0 74 74" fill="none" xmlns="http://www.w3.org/2000/svg">
<rect width="74" height="74" rx="10" fill="#FFB016"/>
<path fill-rule="evenodd" clip-rule="evenodd" d="M59.1712 28.0091C59.0437 28 58.9022 28 58.7538 28H52.8982C48.1024 28 44 31.6901 44 36.5C44 41.3099 48.1047 45 52.8982 45H58.7538C58.9022 45 59.0437 45 59.1759 44.9909C60.1615 44.9328 61.092 44.5265 61.7938 43.8476C62.4957 43.1687 62.9211 42.2635 62.9907 41.3008C63 41.1648 63 41.0175 63 40.8815V32.1185C63 31.9825 63 31.8352 62.9907 31.6992C62.9211 30.7365 62.4957 29.8313 61.7938 29.1524C61.092 28.4735 60.1615 28.0672 59.1759 28.0091M52.3857 38.7667C53.6194 38.7667 54.6189 37.7512 54.6189 36.5C54.6189 35.2488 53.6194 34.2333 52.3857 34.2333C51.1496 34.2333 50.1501 35.2488 50.1501 36.5C50.1501 37.7512 51.1496 38.7667 52.3857 38.7667Z" fill="black"/>
<path fill-rule="evenodd" clip-rule="evenodd" d="M58.4741 49C58.5536 48.9968 58.6327 49.0123 58.705 49.0453C58.7772 49.0782 58.8407 49.1276 58.8902 49.1895C58.9397 49.2514 58.9738 49.3241 58.9897 49.4016C59.0057 49.479 59.003 49.5592 58.982 49.6354C58.5224 51.2629 57.7893 52.6526 56.615 53.8183C54.8938 55.5326 52.713 56.2891 50.0197 56.6503C47.3999 57 44.0563 57 39.8325 57H34.9791C30.7553 57 27.4094 57 24.7919 56.6503C22.0986 56.2891 19.9178 55.5303 18.1966 53.8206C16.4776 52.1086 15.7147 49.9394 15.3516 47.2606C15 44.6549 15 41.3291 15 37.128V36.872C15 32.6709 15 29.3429 15.3516 26.7371C15.7147 24.0583 16.4776 21.8891 18.1966 20.1771C19.9178 18.4674 22.0986 17.7086 24.7919 17.3474C27.4117 17 30.7553 17 34.9791 17H39.8325C44.0563 17 47.4022 17 50.0197 17.3497C52.713 17.7109 54.8938 18.4697 56.615 20.1794C57.7893 21.3497 58.5224 22.7371 58.982 24.3646C59.003 24.4408 59.0057 24.521 58.9897 24.5984C58.9738 24.6759 58.9397 24.7486 58.8902 24.8105C58.8407 24.8724 58.7772 24.9218 58.705 24.9547C58.6327 24.9877 58.5536 25.0032 58.4741 25H52.6739C46.1544 25 40.4093 30.12 40.4093 37C40.4093 43.88 46.1544 49 52.6739 49H58.4741ZM23.6176 26.1429C23.1605 26.1429 22.7221 26.3235 22.3989 26.645C22.0757 26.9665 21.8941 27.4025 21.8941 27.8571C21.8941 28.3118 22.0757 28.7478 22.3989 29.0693C22.7221 29.3908 23.1605 29.5714 23.6176 29.5714H32.8097C33.2668 29.5714 33.7052 29.3908 34.0285 29.0693C34.3517 28.7478 34.5333 28.3118 34.5333 27.8571C34.5333 27.4025 34.3517 26.9665 34.0285 26.645C33.7052 26.3235 33.2668 26.1429 32.8097 26.1429H23.6176Z" fill="black"/>
</svg>
